{"asset":{"version":"2.0","generator":"Blockbench 4.7.0 glTF exporter"},"scenes":[{"nodes":[9],"name":"blockbench_export"}],"scene":0,"nodes":[{"translation":[0.04811523437500059,0.30164062499999994,0.02640625000000013],"name":"body","mesh":0},{"translation":[0.04811523437500059,0.30164062499999994,0.02640625000000013],"name":"lowerbody","mesh":1},{"translation":[0.04811523437500059,0.30164062499999994,0.02640625000000013],"name":"lowererbody","mesh":2},{"rotation":[0.7071067811865475,0,0,0.7071067811865476],"translation":[0.04811523437500059,0.30164062499999994,0.02640625000000013],"name":"Tail","mesh":3},{"translation":[0.04811523437500059,0.30164062499999994,0.02640625000000013],"name":"head","mesh":4},{"rotation":[0.7071067811865475,0,0,0.7071067811865476],"translation":[0.04811523437500059,0.30164062499999994,0.02640625000000013],"name":"finlower","mesh":5},{"rotation":[0.7071067811865475,0,0,0.7071067811865476],"translation":[0.04811523437500059,0.30164062499999994,0.02640625000000013],"name":"finupper","mesh":6},{"rotation":[2.330075400866564e-19,0,0,1],"translation":[0.04811523437500059,0.30164062499999994,0.02640625000000013],"name":"plane","mesh":7},{"rotation":[2.330075400866564e-19,0,0,1],"translation":[0.04811523437500059,0.30164062499999994,0.02640625000000013],"name":"plane","mesh":8},{"children":[0,1,2,3,4,5,6,7,8]}],"bufferViews":[{"buffer":0,"byteOffset":0,"byteLength":480,"target":34962,"byteStride":12},{"buffer":0,"byteOffset":480,"byteLength":480,"target":34962,"byteStride":12},{"buffer":0,"byteOffset":960,"byteLength":320,"target":34962,"byteStride":8},{"buffer":0,"byteOffset":1280,"byteLength":120,"target":34963},{"buffer":0,"byteOffset":1400,"byteLength":480,"target":34962,"byteStride":12},{"buffer":0,"byteOffset":1880,"byteLength":480,"target":34962,"byteStride":12},{"buffer":0,"byteOffset":2360,"byteLength":320,"target":34962,"byteStride":8},{"buffer":0,"byteOffset":2680,"byteLength":120,"target":34963},{"buffer":0,"byteOffset":2800,"byteLength":336,"target":34962,"byteStride":12},{"buffer":0,"byteOffset":3136,"byteLength":336,"target":34962,"byteStride":12},{"buffer":0,"byteOffset":3472,"byteLength":224,"target":34962,"byteStride":8},{"buffer":0,"byteOffset":3696,"byteLength":72,"target":34963},{"buffer":0,"byteOffset":3768,"byteLength":48,"target":34962,"byteStride":12},{"buffer":0,"byteOffset":3816,"byteLength":48,"target":34962,"byteStride":12},{"buffer":0,"byteOffset":3864,"byteLength":32,"target":34962,"byteStride":8},{"buffer":0,"byteOffset":3896,"byteLength":12,"target":34963},{"buffer":0,"byteOffset":3908,"byteLength":336,"target":34962,"byteStride":12},{"buffer":0,"byteOffset":4244,"byteLength":336,"target":34962,"byteStride":12},{"buffer":0,"byteOffset":4580,"byteLength":224,"target":34962,"byteStride":8},{"buffer":0,"byteOffset":4804,"byteLength":72,"target":34963},{"buffer":0,"byteOffset":4876,"byteLength":48,"target":34962,"byteStride":12},{"buffer":0,"byteOffset":4924,"byteLength":48,"target":34962,"byteStride":12},{"buffer":0,"byteOffset":4972,"byteLength":32,"target":34962,"byteStride":8},{"buffer":0,"byteOffset":5004,"byteLength":12,"target":34963},{"buffer":0,"byteOffset":5016,"byteLength":48,"target":34962,"byteStride":12},{"buffer":0,"byteOffset":5064,"byteLength":48,"target":34962,"byteStride":12},{"buffer":0,"byteOffset":5112,"byteLength":32,"target":34962,"byteStride":8},{"buffer":0,"byteOffset":5144,"byteLength":12,"target":34963},{"buffer":0,"byteOffset":5156,"byteLength":48,"target":34962,"byteStride":12},{"buffer":0,"byteOffset":5204,"byteLength":48,"target":34962,"byteStride":12},{"buffer":0,"byteOffset":5252,"byteLength":32,"target":34962,"byteStride":8},{"buffer":0,"byteOffset":5284,"byteLength":12,"target":34963},{"buffer":0,"byteOffset":5296,"byteLength":48,"target":34962,"byteStride":12},{"buffer":0,"byteOffset":5344,"byteLength":48,"target":34962,"byteStride":12},{"buffer":0,"byteOffset":5392,"byteLength":32,"target":34962,"byteStride":8},{"buffer":0,"byteOffset":5424,"byteLength":12,"target":34963}],"buffers":[{"byteLength":5436,"uri":"data:application/octet-stream;base64,"}],"accessors":[{"bufferView":0,"componentType":5126,"count":40,"max":[0.24641601741313934,0.12492187321186066,0.06093750149011612],"min":[0.05141601711511612,-0.11882812529802322,-0.06093750149011612],"type":"VEC3"},{"bufferView":1,"componentType":5126,"count":40,"max":[1,0.7808688282966614,1],"min":[-1,-0.7808688282966614,-1],"type":"VEC3"},{"bufferView":2,"componentType":5126,"count":40,"max":[0.53125,0.46875],"min":[0,0.15625],"type":"VEC2"},{"bufferView":3,"componentType":5123,"count":60,"max":[39],"min":[0],"type":"SCALAR"},{"bufferView":4,"componentType":5126,"count":40,"max":[0.05141601711511612,0.12492187321186066,0.06093750149011612],"min":[-0.11311523616313934,-0.11882812529802322,-0.06093750149011612],"type":"VEC3"},{"bufferView":5,"componentType":5126,"count":40,"max":[1,0.7631230354309082,0.9798765778541565],"min":[-1,-0.7631230354309082,-0.9798765778541565],"type":"VEC3"},{"bufferView":6,"componentType":5126,"count":40,"max":[0.40625,0.8202441334724426],"min":[0,0],"type":"VEC2"},{"bufferView":7,"componentType":5123,"count":60,"max":[39],"min":[0],"type":"SCALAR"},{"bufferView":8,"componentType":5126,"count":28,"max":[-0.11311523616313934,0.07921875268220901,0.027421874925494194],"min":[-0.2776464819908142,-0.07312499731779099,-0.027421874925494194],"type":"VEC3"},{"bufferView":9,"componentType":5126,"count":28,"max":[1,0.6474149823188782,0.986393928527832],"min":[-0.2517724931240082,-0.6474149823188782,-0.986393928527832],"type":"VEC3"},{"bufferView":10,"componentType":5126,"count":28,"max":[0.6195163130760193,0.625],"min":[0,0],"type":"VEC2"},{"bufferView":11,"componentType":5123,"count":36,"max":[27],"min":[0],"type":"SCALAR"},{"bufferView":12,"componentType":5126,"count":4,"max":[-0.07350585609674454,-8.88178432935015e-17,0.1342187523841858],"min":[-0.4878808557987213,-8.88178432935015e-17,-0.12781250476837158],"type":"VEC3"},{"bufferView":13,"componentType":5126,"count":4,"max":[0,1,0],"min":[0,1,0],"type":"VEC3"},{"bufferView":14,"componentType":5126,"count":4,"max":[0.28125,0.671875],"min":[0.0625,0.546875],"type":"VEC2"},{"bufferView":15,"componentType":5123,"count":6,"max":[3],"min":[0],"type":"SCALAR"},{"bufferView":16,"componentType":5126,"count":28,"max":[0.38352540135383606,0.12492187321186066,0.06093750149011612],"min":[0.24641601741313934,-0.11882812529802322,-0.06093750149011612],"type":"VEC3"},{"bufferView":17,"componentType":5126,"count":28,"max":[0.4854618310928345,0.6826806664466858,0.9138115644454956],"min":[-1,-0.6876844167709351,-0.9138115644454956],"type":"VEC3"},{"bufferView":18,"componentType":5126,"count":28,"max":[0.4921875,0.5234375],"min":[0.0007812500116415322,0],"type":"VEC2"},{"bufferView":19,"componentType":5123,"count":36,"max":[27],"min":[0],"type":"SCALAR"},{"bufferView":20,"componentType":5126,"count":4,"max":[0.24336914718151093,-8.88178432935015e-17,0.1889062523841858],"min":[-0.043037109076976776,-8.88178432935015e-17,0.10359375178813934],"type":"VEC3"},{"bufferView":21,"componentType":5126,"count":4,"max":[0,1,0],"min":[0,1,0],"type":"VEC3"},{"bufferView":22,"componentType":5126,"count":4,"max":[0.7057031393051147,0.19109374284744263],"min":[0.5625,0.1484375],"type":"VEC2"},{"bufferView":23,"componentType":5123,"count":6,"max":[3],"min":[0],"type":"SCALAR"},{"bufferView":24,"componentType":5126,"count":4,"max":[0.24336914718151093,-8.88178432935015e-17,-0.10359375178813934],"min":[-0.043037109076976776,-8.88178432935015e-17,-0.1889062523841858],"type":"VEC3"},{"bufferView":25,"componentType":5126,"count":4,"max":[0,1,0],"min":[0,1,0],"type":"VEC3"},{"bufferView":26,"componentType":5126,"count":4,"max":[0.7205469012260437,0.1262500286102295],"min":[0.577343761920929,0.08359372615814209],"type":"VEC2"},{"bufferView":27,"componentType":5123,"count":6,"max":[3],"min":[0],"type":"SCALAR"},{"bufferView":28,"componentType":5126,"count":4,"max":[0.24336914718151093,-0.021328125149011612,-0.06093750149011612],"min":[0.04227539151906967,-0.021328125149011612,-0.1310156285762787],"type":"VEC3"},{"bufferView":29,"componentType":5126,"count":4,"max":[0,1,0],"min":[0,1,0],"type":"VEC3"},{"bufferView":30,"componentType":5126,"count":4,"max":[0.5536718964576721,0.6053531169891357],"min":[0.453125,0.5703125],"type":"VEC2"},{"bufferView":31,"componentType":5123,"count":6,"max":[3],"min":[0],"type":"SCALAR"},{"bufferView":32,"componentType":5126,"count":4,"max":[0.24336914718151093,-0.021328125149011612,0.1310156285762787],"min":[0.04227539151906967,-0.021328125149011612,0.06093750149011612],"type":"VEC3"},{"bufferView":33,"componentType":5126,"count":4,"max":[0,1,0],"min":[0,1,0],"type":"VEC3"},{"bufferView":34,"componentType":5126,"count":4,"max":[0.45210936665534973,0.6912906169891357],"min":[0.3515625,0.65625],"type":"VEC2"},{"bufferView":35,"componentType":5123,"count":6,"max":[3],"min":[0],"type":"SCALAR"}],"materials":[{"pbrMetallicRoughness":{"metallicFactor":0,"roughnessFactor":1,"baseColorTexture":{"index":0}},"alphaMode":"MASK","alphaCutoff":0.05,"doubleSided":true}],"textures":[{"sampler":0,"source":0,"name":"texture"}],"samplers":[{"magFilter":9728,"minFilter":9728,"wrapS":33071,"wrapT":33071}],"images":[{"mimeType":"image/png","uri":"data:image/png;base64,"}],"meshes":[{"primitives":[{"mode":4,"attributes":{"POSITION":0,"NORMAL":1,"TEXCOORD_0":2},"indices":3,"material":0}]},{"primitives":[{"mode":4,"attributes":{"POSITION":4,"NORMAL":5,"TEXCOORD_0":6},"indices":7,"material":0}]},{"primitives":[{"mode":4,"attributes":{"POSITION":8,"NORMAL":9,"TEXCOORD_0":10},"indices":11,"material":0}]},{"primitives":[{"mode":4,"attributes":{"POSITION":12,"NORMAL":13,"TEXCOORD_0":14},"indices":15,"material":0}]},{"primitives":[{"mode":4,"attributes":{"POSITION":16,"NORMAL":17,"TEXCOORD_0":18},"indices":19,"material":0}]},{"primitives":[{"mode":4,"attributes":{"POSITION":20,"NORMAL":21,"TEXCOORD_0":22},"indices":23,"material":0}]},{"primitives":[{"mode":4,"attributes":{"POSITION":24,"NORMAL":25,"TEXCOORD_0":26},"indices":27,"material":0}]},{"primitives":[{"mode":4,"attributes":{"POSITION":28,"NORMAL":29,"TEXCOORD_0":30},"indices":31,"material":0}]},{"primitives":[{"mode":4,"attributes":{"POSITION":32,"NORMAL":33,"TEXCOORD_0":34},"indices":35,"material":0}]}]}